<?xml version="1.0" encoding="UTF-8" standalone="no"?>
<svg
   xmlns:dc="http://purl.org/dc/elements/1.1/"
   xmlns:cc="http://creativecommons.org/ns#"
   xmlns:rdf="http://www.w3.org/1999/02/22-rdf-syntax-ns#"
   xmlns:svg="http://www.w3.org/2000/svg"
   xmlns="http://www.w3.org/2000/svg"
   xmlns:sodipodi="http://sodipodi.sourceforge.net/DTD/sodipodi-0.dtd"
   xmlns:inkscape="http://www.inkscape.org/namespaces/inkscape"
   width="1920mm"
   height="1080mm"
   viewBox="0 0 1280 720"
   version="1.1"
   id="svg8"
   inkscape:version="1.0.1 (3bc2e813f5, 2020-09-07)"
   sodipodi:docname="Frame.svg">
  <defs
     id="defs2">
    <inkscape:path-effect
       effect="rough_hatches"
       id="path-effect945"
       is_visible="true"
       lpeversion="1"
       direction="605.50525,229.39051 , 50.731093,-87.391762"
       dist_rdm="75;1"
       growth="0"
       do_bend="true"
       bender="780.88432,460.47586 , -66.166845,-705.13578"
       bottom_edge_variation="72.748553;1"
       top_edge_variation="72.748553;1"
       bottom_tgt_variation="0;1"
       top_tgt_variation="0;1"
       scale_bf="1"
       scale_bb="1"
       scale_tf="1"
       scale_tb="1"
       top_smth_variation="0;1"
       bottom_smth_variation="0;1"
       fat_output="true"
       stroke_width_top="1"
       stroke_width_bottom="1"
       front_thickness="1"
       back_thickness="0.25" />
    <inkscape:path-effect
       effect="bspline"
       id="path-effect931"
       is_visible="true"
       lpeversion="1"
       weight="33.333333"
       steps="2"
       helper_size="0"
       apply_no_weight="true"
       apply_with_weight="true"
       only_selected="false" />
    <inkscape:path-effect
       effect="show_handles"
       id="path-effect927"
       is_visible="true"
       lpeversion="1"
       nodes="true"
       handles="true"
       original_path="true"
       show_center_node="false"
       original_d="false"
       scale_nodes_and_handles="10" />
    <inkscape:path-effect
       effect="attach_path"
       id="path-effect904"
       lpeversion="1" />
    <inkscape:path-effect
       effect="vonkoch"
       id="path-effect901"
       is_visible="true"
       lpeversion="1"
       ref_path="M 312.93706,388.44702 H 811.53914"
       generator="m 312.93706,655.14926 h 166.20069 m 166.2007,0 h 166.20069"
       similar_only="false"
       nbgenerations="1"
       drawall="true"
       maxComplexity="1000" />
    <inkscape:path-effect
       effect="copy_rotate"
       starting_point="-2965.2558,5490.3972"
       origin="-3192.8218,2942.8997"
       id="path-effect897"
       is_visible="true"
       lpeversion="1"
       method="normal"
       num_copies="6"
       starting_angle="-84.895361"
       rotation_angle="60"
       gap="-0.01"
       copies_to_360="true"
       mirror_copies="false"
       split_items="false" />
    <inkscape:path-effect
       effect="clone_original"
       id="path-effect878"
       is_visible="true"
       lpeversion="1"
       linkeditem=""
       method="d"
       attributes=""
       css_properties=""
       allow_transforms="true" />
    <inkscape:path-effect
       effect="bounding_box"
       id="path-effect876"
       is_visible="true"
       lpeversion="1"
       linkedpath=""
       visualbounds="false" />
    <inkscape:path-effect
       effect="interpolate_points"
       id="path-effect852"
       is_visible="true"
       lpeversion="1"
       interpolator_type="CentripetalCatmullRom" />
    <inkscape:path-effect
       effect="skeletal"
       id="path-effect848"
       is_visible="true"
       lpeversion="1"
       pattern="M 0,0 H 1"
       copytype="single_stretched"
       prop_scale="1.21"
       scale_y_rel="false"
       spacing="1.7"
       normal_offset="1.3"
       tang_offset="0"
       prop_units="false"
       vertical_pattern="false"
       hide_knot="false"
       fuse_tolerance="0" />
    <inkscape:path-effect
       effect="ruler"
       id="path-effect845"
       is_visible="true"
       lpeversion="1"
       unit="px"
       mark_distance="20"
       mark_length="14"
       minor_mark_length="7"
       major_mark_steps="5"
       shift="0"
       offset="0"
       mark_dir="left"
       border_marks="both" />
    <inkscape:path-effect
       effect="join_type"
       id="path-effect841"
       is_visible="true"
       lpeversion="1"
       linecap_type="butt"
       line_width="4.3527198"
       linejoin_type="extrp_arc"
       miter_limit="100"
       attempt_force_join="true" />
    <inkscape:path-effect
       effect="knot"
       id="path-effect839"
       is_visible="true"
       lpeversion="1"
       switcher_size="15"
       interruption_width="3"
       prop_to_stroke_width="true"
       add_stroke_width="inkscape_1.0_and_up"
       both="false"
       inverse_width="false"
       add_other_stroke_width="inkscape_1.0_and_up"
       crossing_points_vector="" />
    <inkscape:path-effect
       effect="rough_hatches"
       id="path-effect880"
       is_visible="true"
       lpeversion="1"
       direction="-2655.4628,1348.2624 , -8.8501727,-18.959342"
       dist_rdm="75;1"
       growth="0"
       do_bend="true"
       bender="-2276.4217,1905.1991 , -160.66853,-687.09271"
       bottom_edge_variation="58.714096;1"
       top_edge_variation="58.714096;1"
       bottom_tgt_variation="0;1"
       top_tgt_variation="0;1"
       scale_bf="1"
       scale_bb="1"
       scale_tf="1"
       scale_tb="1"
       top_smth_variation="0;1"
       bottom_smth_variation="0;1"
       fat_output="true"
       stroke_width_top="1"
       stroke_width_bottom="1"
       front_thickness="1"
       back_thickness="0.25" />
    <inkscape:path-effect
       effect="offset"
       id="path-effect851"
       is_visible="true"
       lpeversion="1"
       linejoin_type="miter-clip"
       unit="mm"
       offset="8.9"
       miter_limit="4"
       attempt_force_join="true"
       update_on_knot_move="true" />
    <inkscape:path-effect
       effect="lattice2"
       gridpoint0="-2202.0468,1310.3563"
       gridpoint1="-1265.4198,1310.3563"
       gridpoint2="-2202.0468,2261.3073"
       gridpoint3="-1265.4198,2261.3073"
       gridpoint4="-1967.8901,1310.3563"
       gridpoint5="-1499.5766,1310.3563"
       gridpoint6="-1967.8901,2261.3073"
       gridpoint7="-1499.5766,2261.3073"
       gridpoint8x9="-1733.7333,1310.3563"
       gridpoint10x11="-1733.7333,2261.3073"
       gridpoint12="-2202.0468,1548.0941"
       gridpoint13="-1265.4198,1548.0941"
       gridpoint14="-2202.0468,2023.5696"
       gridpoint15="-1265.4198,2023.5696"
       gridpoint16="-2168.5801,1853.68"
       gridpoint17="-1559.5726,1716.2171"
       gridpoint18="-1967.8901,2023.5696"
       gridpoint19="-1499.5766,2023.5696"
       gridpoint20x21="-1650.9589,1588.1039"
       gridpoint22x23="-1733.7333,2023.5696"
       gridpoint24x26="-2202.0468,1785.8318"
       gridpoint25x27="-1147.9256,1774.0354"
       gridpoint28x30="-2016.0452,1475.0095"
       gridpoint29x31="-1499.5766,1785.8318"
       gridpoint32x33x34x35="-1733.7333,1785.8318"
       id="path-effect846"
       is_visible="true"
       lpeversion="1"
       horizontal_mirror="false"
       vertical_mirror="false"
       perimetral="false"
       live_update="true" />
    <inkscape:path-effect
       effect="skeletal"
       id="path-effect844"
       is_visible="true"
       lpeversion="1"
       pattern="M 0,0 H 1"
       copytype="single_stretched"
       prop_scale="1.05"
       scale_y_rel="false"
       spacing="0"
       normal_offset="0"
       tang_offset="0"
       prop_units="false"
       vertical_pattern="false"
       hide_knot="false"
       fuse_tolerance="0" />
    <inkscape:path-effect
       effect="rough_hatches"
       id="path-effect850"
       is_visible="true"
       lpeversion="1"
       direction="697.63554,1466.0439 , 103.84229,57.789139"
       dist_rdm="75;1"
       growth="0"
       do_bend="true"
       bender="20.711869,986.04395 , -627.69533,-319.67571"
       bottom_edge_variation="63.04008;1"
       top_edge_variation="63.04008;1"
       bottom_tgt_variation="0;1"
       top_tgt_variation="0;1"
       scale_bf="1"
       scale_bb="1"
       scale_tf="1"
       scale_tb="1"
       top_smth_variation="0;1"
       bottom_smth_variation="0;1"
       fat_output="true"
       stroke_width_top="1"
       stroke_width_bottom="1"
       front_thickness="1"
       back_thickness="0.25" />
    <inkscape:path-effect
       effect="offset"
       id="path-effect847"
       is_visible="true"
       lpeversion="1"
       linejoin_type="miter"
       unit="mm"
       offset="0"
       miter_limit="4"
       attempt_force_join="true"
       update_on_knot_move="true" />
  </defs>
  <sodipodi:namedview
     id="base"
     pagecolor="#ffffff"
     bordercolor="#666666"
     borderopacity="1.0"
     inkscape:pageopacity="0.0"
     inkscape:pageshadow="2"
     inkscape:zoom="0.077369096"
     inkscape:cx="2199.8186"
     inkscape:cy="1831.5361"
     inkscape:document-units="mm"
     inkscape:current-layer="g1089"
     inkscape:document-rotation="0"
     showgrid="false"
     inkscape:window-width="1354"
     inkscape:window-height="712"
     inkscape:window-x="0"
     inkscape:window-y="27"
     inkscape:window-maximized="0"
     inkscape:lockguides="true"
     showguides="true"
     inkscape:snap-global="false" />
  <metadata
     id="metadata5">
    <rdf:RDF>
      <cc:Work
         rdf:about="">
        <dc:format>image/svg+xml</dc:format>
        <dc:type
           rdf:resource="http://purl.org/dc/dcmitype/StillImage" />
        <dc:title />
      </cc:Work>
    </rdf:RDF>
  </metadata>
  <g
     inkscape:label="Capa 1"
     inkscape:groupmode="layer"
     id="layer1">
    <path
       style="fill:#aaffaa;fill-opacity:1;stroke:#000000;stroke-width:0.176389px;stroke-linecap:butt;stroke-linejoin:miter;stroke-opacity:1"
       d="m 433.64441,474.6031 10.79486,112.75069 151.76922,22.538 89.11331,-76.34919 -38.92502,-67.66438 c -70.10956,1.40264 -143.32313,-0.93191 -212.75237,8.72488 z"
       id="path1124"
       sodipodi:nodetypes="cccccc" />
    <g
       id="g1122"
       transform="translate(27.668343,-249.20969)">
      <path
         style="fill:#f4e3d7;stroke:#000000;stroke-width:0;stroke-linecap:butt;stroke-linejoin:miter;stroke-miterlimit:4;stroke-dasharray:none;stroke-opacity:1"
         d="m 415.46941,433.0323 c 0,-2.61125 3.22573,-9.26296 1.80908,-10.32046 -1.41667,-1.0575 -14.321,-17.4852 -14.321,-17.4852 0,0 -3.80532,17.28422 -1.43478,25.44028 2.44791,8.42228 15.33227,21.38378 15.33227,21.38378 z"
         id="path1140"
         sodipodi:nodetypes="cscscc" />
      <path
         style="fill:#ddafe9;stroke:#000000;stroke-width:0.176389px;stroke-linecap:butt;stroke-linejoin:miter;stroke-opacity:1"
         d="m 543.86696,553.6882 c 17.28775,-2.26011 18.29843,-4.88183 31.67846,3.04025 8.18952,4.84887 53.15358,56.77665 53.15358,56.77665 8.65579,20.17173 22.35175,74.21475 12.28608,98.8373 -5.2369,12.81047 -21.35508,6.327 -44.05626,7.50467 -33.1485,1.71964 -13.76297,-4.50866 -15.67382,-20.54564 L 555.19077,599.02429 v 0 c 0,0 -30.91829,-42.77441 -11.32381,-45.33609 z"
         id="path868"
         sodipodi:nodetypes="ssssscccs" />
      <path
         id="rect862"
         style="fill:#aaffaa;fill-rule:evenodd;stroke:#1c1e88;stroke-width:0;stroke-linecap:round;stroke-linejoin:round;stroke-dasharray:none"
         d="m 492.79248,532.27836 c 63.80825,0.0266 115.40645,37.95191 125.03753,91.90694 1.24957,7.00031 2.51923,12.58827 3.57811,18.33429 3.18089,17.26098 7.12674,32.01089 4.35483,61.83519 -3.70958,39.91329 -96.37101,17.71705 -128.45974,17.71705 -42.53984,0 -106.32531,18.86301 -128.83832,-7.26736 -13.42567,-15.58287 4.63262,-70.36071 4.208,-90.61917 -1.13669,-54.22914 52.21107,-91.93521 120.11959,-91.90694 z"
         sodipodi:nodetypes="ssssssss" />
      <path
         style="fill:#f4d7d7;stroke:#000000;stroke-width:0.176389px;stroke-linecap:butt;stroke-linejoin:miter;stroke-opacity:1"
         d="m 451.36464,574.91361 c 6.57737,-7.86961 20.36994,-74.0756 12.63009,-74.91494 l 91.5122,10.48103 c 4.82091,36.74578 9.84137,70.52891 15.54182,94.21689 l 14.02187,33.29856 -145.34458,-52.02651 z"
         id="path1065"
         sodipodi:nodetypes="ccccccc" />
      <path
         style="fill:#aaffaa;stroke:#000000;stroke-width:0;stroke-linecap:butt;stroke-linejoin:miter;stroke-miterlimit:4;stroke-dasharray:none;stroke-opacity:1"
         d="m 438.4442,550.86179 c 0,0 38.5951,4.75673 75.12328,8.69434 22.47869,2.42313 43.74104,-0.54066 56.03229,9.95961 21.5409,18.40213 31.80392,76.26337 31.80392,76.26337 -90.56692,22.76698 -84.3059,3.45455 -100.58615,-0.54278 l -65.46402,-16.07354 z"
         id="path1091"
         sodipodi:nodetypes="csscscc" />
      <path
         style="fill:#ddafe9;stroke:#000000;stroke-width:0.177406px;stroke-linecap:butt;stroke-linejoin:miter;stroke-opacity:1"
         d="m 418.38684,548.73384 c -32.17791,10.12957 -59.5606,87.57398 -59.5606,87.57398 l -9.90386,81.43612 c 0,0 73.56104,11.70936 72.44586,1.31049 -1.11518,-10.39888 -11.68411,-61.89957 5.26002,-90.75193 5.87721,-10.00768 31.69443,-40.64523 31.69443,-40.64523 6.14284,-3.21344 17.43111,-56.98249 -39.93585,-38.92343 z"
         id="path868-3"
         sodipodi:nodetypes="sccsscs" />
      <path
         style="fill:#f4e3d7;stroke:#000000;stroke-width:0;stroke-linecap:butt;stroke-linejoin:miter;stroke-opacity:1;stroke-miterlimit:4;stroke-dasharray:none"
         d="m 604.55549,443.99174 c -0.53198,-3.87593 -1.30685,-21.37173 3.36458,-22.53041 4.67144,-1.15869 8.89514,-1.67235 11.96365,2.05511 5.48651,6.6647 -2.08011,22.49963 -2.08011,22.49963 0,0 -9.30287,13.29751 -10.39295,13.29751 -1.09008,0 -2.00895,1.50093 -5.19834,-2.04696 -0.91292,-1.01554 4.78219,-3.78321 4.25518,-4.71556 -1.9893,-3.5193 -1.55764,-5.97743 -1.55764,-5.97743 z"
         id="path1136"
         sodipodi:nodetypes="ssscssscs" />
      <g
         id="g1063"
         transform="translate(24.95727,-45.287448)">
        <g
           id="g1089"
           transform="translate(-15.153594,12.581333)">
          <path
             id="path864"
             style="fill:#f4e3d7;fill-rule:evenodd;stroke:#1c1e88;stroke-width:0;stroke-linecap:round;stroke-linejoin:round;stroke-dasharray:none"
             d="m 600.16191,462.8276 c -1.5377,57.16056 -47.29235,102.30874 -102.42195,101.06437 -55.1296,-1.24436 -98.94651,-48.41431 -98.08433,-105.59011 0.86218,-57.1758 46.07992,-102.90197 101.22007,-102.35821 55.14016,0.54376 99.47273,49.70149 99.28621,106.88395"
             sodipodi:nodetypes="csssc" />
          <path
             style="fill:#1a1a1a;stroke:#000000;stroke-width:0.176389px;stroke-linecap:butt;stroke-linejoin:miter;stroke-opacity:1"
             d="m 421.37736,432.5355 c 0.64564,0.40215 -5.34194,7.38317 -4.83501,8.15903 0.45604,0.69798 7.09253,-5.05401 8.9155,-5.67797 l 20.53652,-4.04473 c 0,0 7.85004,0.63405 11.71893,1.33286 6.94176,1.25385 20.5347,5.11545 20.5347,5.11545 l 8.10153,-1.3849 c -18.37531,-8.41269 -43.86952,-14.04877 -64.97217,-3.49974 z"
             id="path908"
             sodipodi:nodetypes="csccsccc" />
          <path
             style="fill:#333333;stroke:#000000;stroke-width:0.176389px;stroke-linecap:butt;stroke-linejoin:miter;stroke-opacity:1"
             d="m 502.77012,434.30017 c 19.52221,-10.63252 42.21182,-15.63272 62.28183,-8.10618 0.6807,0.25527 7.08268,9.12168 4.04235,6.81744 -0.9075,-0.68779 -6.2933,-2.94368 -7.35662,-3.15901 -2.41167,-0.48837 -7.79773,-1.90515 -9.34775,-1.81519 l -5.36206,-0.45199 -14.76831,2.3622 -25.09858,6.84145 z"
             id="path908-6"
             sodipodi:nodetypes="csssccccc" />
          <path
             style="fill:#1f241c;stroke:#000000;stroke-width:0.176389px;stroke-linecap:butt;stroke-linejoin:miter;stroke-opacity:1"
             d="m 398.93981,470.91331 c 0,0 -4.71545,-6.32513 -8.52053,-16.19254 -5.2538,-13.62428 -10.05588,-33.11015 -9.88687,-43.98744 0.11124,-7.15898 8.05974,-12.50885 8.69645,-19.64033 0.72821,-8.15635 -9.69404,-16.66072 -5.80959,-23.86956 6.4422,-11.95551 38.36115,-13.724 38.36115,-13.724 0,0 38.91857,-30.76853 61.67193,-29.50298 10.62973,0.59123 16.77814,14.306 27.10518,16.89308 22.43706,5.62082 44.32736,-21.1009 69.23825,-4.60471 4.32486,2.86396 3.15116,29.10839 6.33038,32.92309 3.7833,4.53952 20.17719,-4.29357 25.39186,3.24849 9.63883,13.94078 8.02402,44.88011 8.02402,44.88011 l -26.68278,56.64561 -18.04319,-50.7188 -28.07709,-34.74316 -73.6292,7.89443 c 0,0 -37.23212,-2.11793 -46.02355,15.89399 -8.97609,18.39026 -27.48628,72.05325 -28.14642,58.60472 z"
             id="path894"
             sodipodi:nodetypes="csssscssssscccccsc" />
          <path
             style="fill:none;stroke:#000000;stroke-width:0.177688px;stroke-linecap:butt;stroke-linejoin:miter;stroke-opacity:1"
             d="m 492.2687,449.37294 c -0.34721,2.28295 2.45989,5.63136 2.40643,7.74718 -0.35167,13.91866 2.36717,24.36313 -16.91787,33.20259 -14.95118,6.85299 15.03768,10.3539 15.03768,10.3539"
             id="path936"
             sodipodi:nodetypes="cssc" />
          <path
             style="fill:#ffffff;stroke:#000000;stroke-width:0.157814px;stroke-linecap:butt;stroke-linejoin:miter;stroke-opacity:1"
             d="m 432.0124,443.97911 c -13.05455,4.52733 -16.57908,22.96301 0.24346,26.22053 10.04149,1.94443 29.17505,0.49823 40.58004,-2.21418 11.46381,-2.7264 20.36769,-18.61289 3.07401,-25.63655 -12.22263,-4.9641 -31.43988,-2.69012 -43.89751,1.6302 z"
             id="path938"
             sodipodi:nodetypes="sssss" />
          <path
             style="fill:#ffffff;stroke:#000000;stroke-width:0.155373px;stroke-linecap:butt;stroke-linejoin:miter;stroke-opacity:1"
             d="m 516.19881,439.81204 c -12.329,4.80843 -12.31088,20.07233 0.24347,25.41437 8.11395,3.45259 26.63551,-0.38031 40.58187,-2.1461 13.63288,-1.7261 18.83135,-17.90984 3.07416,-24.84835 -11.92163,-5.24956 -31.7706,-3.15032 -43.8995,1.58008 z"
             id="path938-7-5"
             sodipodi:nodetypes="sssss" />
          <path
             style="fill:#1a1a1a;fill-rule:evenodd;stroke:#1c1e88;stroke-width:0;stroke-linecap:round;stroke-linejoin:round;stroke-dasharray:none"
             id="path972"
             sodipodi:type="arc"
             sodipodi:cx="536.72131"
             sodipodi:cy="451.98328"
             sodipodi:rx="11.893158"
             sodipodi:ry="6.3595071"
             sodipodi:start="0"
             sodipodi:end="6.268234"
             sodipodi:open="true"
             sodipodi:arc-type="arc"
             d="m 548.61447,451.98328 a 11.893158,6.3595071 0 0 1 -11.8487,6.35946 11.893158,6.3595071 0 0 1 -11.93728,-6.31192 11.893158,6.3595071 0 0 1 11.75946,-6.40665 11.893158,6.3595071 0 0 1 12.02519,6.26403" />
          <path
             style="fill:#1a1a1a;fill-rule:evenodd;stroke:#1c1e88;stroke-width:0;stroke-linecap:round;stroke-linejoin:round;stroke-dasharray:none"
             id="path972-3"
             sodipodi:type="arc"
             sodipodi:cx="452.43359"
             sodipodi:cy="456.23672"
             sodipodi:rx="11.892998"
             sodipodi:ry="6.3595066"
             sodipodi:start="0"
             sodipodi:end="6.2704838"
             sodipodi:arc-type="arc"
             d="m 464.32659,456.23672 a 11.892998,6.3595066 0 0 1 -11.85523,6.35948 11.892998,6.3595066 0 0 1 -11.93052,-6.31909 11.892998,6.3595066 0 0 1 11.77946,-6.3996 11.892998,6.3595066 0 0 1 12.00533,6.27844"
             sodipodi:open="true" />
          <path
             style="fill:none;stroke:#000000;stroke-width:0.176389px;stroke-linecap:butt;stroke-linejoin:miter;stroke-opacity:1"
             d="m 488.29918,494.40715 c -4.10996,1.29859 -3.75622,-0.6364 2.22694,-4.4126 0.77168,-0.48703 -0.5648,2.73284 -0.97553,3.49401 -0.32479,0.6019 -0.35788,0.63627 -1.25141,0.91859 z"
             id="path989"
             sodipodi:nodetypes="ssss" />
          <path
             style="fill:#333333;stroke:#000000;stroke-width:0.176389px;stroke-linecap:butt;stroke-linejoin:miter;stroke-opacity:1"
             d="m 474.47913,529.19251 c 7.66986,1.83329 15.12879,4.24954 23.39707,4.29322 6.64128,0.0351 13.53197,-0.8517 19.8362,-1.74655 4.00355,-0.56828 10.77911,-5.56535 10.77911,-5.56535 0,0 -33.22479,0.20363 -49.32053,-0.0627 -4.78813,-0.0792 -13.97081,-2.77395 -13.97081,-2.77395 0,0 5.72184,5.00509 9.27896,5.85533 z"
             id="path991"
             sodipodi:nodetypes="ssscscs" />
          <path
             style="fill:#ffffff;stroke:#000000;stroke-width:0.176389px;stroke-linecap:butt;stroke-linejoin:miter;stroke-opacity:1"
             d="m 476.26877,525.94078 -0.0658,3.50361 3.73501,0.65459 0.97407,-3.43659 -1.5652,-10e-4 z"
             id="path993"
             sodipodi:nodetypes="cccccc" />
          <path
             style="fill:#f9f9f9;stroke:#000000;stroke-width:0.176389px;stroke-linecap:butt;stroke-linejoin:miter;stroke-opacity:1"
             d="m 481.2708,526.5154 -0.51938,3.77544 5.44934,1.02083 -0.31216,-4.82296 -4.00423,0.0559 z"
             id="path995"
             sodipodi:nodetypes="cccccc" />
          <path
             style="fill:#ffffff;stroke:#000000;stroke-width:0.176389px;stroke-linecap:butt;stroke-linejoin:miter;stroke-opacity:1"
             d="m 487.20391,526.54173 -0.2641,4.82498 5.78264,1.04555 1.38455,-5.80437 z"
             id="path997"
             sodipodi:nodetypes="ccccc" />
          <path
             style="fill:#ffffff;stroke:#000000;stroke-width:0.176389px;stroke-linecap:butt;stroke-linejoin:miter;stroke-opacity:1"
             d="m 500.5746,526.5667 0.89908,6.35425 7.20319,-0.40206 -2.0895,-6.12063 z"
             id="path999"
             sodipodi:nodetypes="ccccc" />
          <path
             style="fill:#ffffff;stroke:#000000;stroke-width:0.176389px;stroke-linecap:butt;stroke-linejoin:miter;stroke-opacity:1"
             d="m 511.56336,526.49667 2.41246,5.54323 3.8198,-0.3463 -2.31682,-5.43759 z"
             id="path1001"
             sodipodi:nodetypes="ccccc" />
          <path
             style="fill:#ffffff;stroke:#000000;stroke-width:0.176389px;stroke-linecap:butt;stroke-linejoin:miter;stroke-opacity:1"
             d="m 519.68659,526.35983 1.60328,3.20634 3.058,-1.37311 -1.73241,-1.79954 z"
             id="path1003"
             sodipodi:nodetypes="ccccc" />
          <path
             style="fill:#ffffff;stroke:#000000;stroke-width:0.176389px;stroke-linecap:butt;stroke-linejoin:miter;stroke-opacity:1"
             d="m 472.39418,525.02884 -0.25271,2.62756 2.47354,1.43782 0.95563,0.29279 0.0774,-3.59502 z"
             id="path993-5"
             sodipodi:nodetypes="cccccc" />
          <path
             style="fill:#f9f9f9;stroke:#000000;stroke-width:0.176389px;stroke-linecap:butt;stroke-linejoin:miter;stroke-opacity:1"
             d="m 495.10261,526.49436 -1.38566,6.21536 c 0,0 2.71494,0.34992 4.07507,0.39404 0.90452,0.0293 2.87939,0.0237 2.87939,0.0237 l -0.99851,-6.61273 z"
             id="path1020"
             sodipodi:nodetypes="ccsccc" />
          <path
             style="fill:#f9f9f9;stroke:#000000;stroke-width:0.176389px;stroke-linecap:butt;stroke-linejoin:miter;stroke-opacity:1"
             d="m 507.12573,526.39474 2.18421,6.00029 4.07432,-0.35761 -2.97154,-5.67745 z"
             id="path1022" />
          <path
             style="fill:#f9f9f9;stroke:#000000;stroke-width:0.176389px;stroke-linecap:butt;stroke-linejoin:miter;stroke-opacity:1"
             d="m 516.33882,526.39596 2.25916,4.75169 2.37269,-1.23607 -1.85275,-3.54792 z"
             id="path1024"
             sodipodi:nodetypes="ccccc" />
          <path
             style="fill:#ffffff;stroke:#000000;stroke-width:0.176389px;stroke-linecap:butt;stroke-linejoin:miter;stroke-opacity:1"
             d="m 469.48506,524.33216 -0.22207,1.51667 2.2655,1.42141 0.37787,-2.34533 z"
             id="path993-5-6"
             sodipodi:nodetypes="ccccc" />
          <path
             style="fill:#f4e3d7;stroke:#000000;stroke-width:0.176389px;stroke-linecap:butt;stroke-linejoin:miter;stroke-opacity:1"
             d="m 420.17657,924.43469 38.89195,82.49091 106.72829,-10.87722 -22.03755,-88.07642 25.44472,87.79044 110.18995,-1.49424 -15.89777,-81.86332 C 581.35595,894.93961 500.16797,897.25742 420.17657,924.43469 Z"
             id="path1132"
             sodipodi:nodetypes="cccccccc" />
          <path
             style="opacity:0.997;fill:#d35f5f;stroke:#000000;stroke-width:0.176389px;stroke-linecap:butt;stroke-linejoin:miter;stroke-opacity:1"
             d="m 405.40797,839.09571 c -16.49577,44.74981 -42.28386,93.03209 -42.28386,93.03209 0,0 24.54939,10.83928 37.45146,10.05472 17.429,-1.05983 31.11682,-19.21326 48.57344,-19.61275 16.41715,-0.37571 31.66755,17.59207 46.47703,16.33586 14.80947,-1.25621 21.65377,-18.01177 34.8863,-19.38772 18.36764,-1.9099 34.65666,19.06995 52.92531,16.37289 14.39146,-2.12466 21.67284,-23.41306 36.18707,-24.39572 11.54521,-0.78165 19.75046,13.29038 31.13761,15.34842 17.53985,3.17003 53.25834,12.46631 53.20295,-5.35761 -0.0681,-21.91814 -54.02331,-122.9077 -66.29042,-109.23819 0,0 -69.32571,33.05587 -106.20749,41.63125 -51.77225,12.03757 -114.27781,-46.7444 -126.0594,-14.78324 z"
             id="path1130"
             sodipodi:nodetypes="scsszssssscss" />
        </g>
      </g>
      <path
         style="fill:#f4d7d7;stroke:#000000;stroke-width:0;stroke-linecap:butt;stroke-linejoin:miter;stroke-miterlimit:4;stroke-dasharray:none;stroke-opacity:1"
         d="m 459.42569,549.62981 34.9083,25.76608 c 0,0 41.05911,11.8749 59.94789,0.56069 9.02991,-5.40883 17.04146,-20.98822 17.04146,-20.98822 -1.77912,-0.99009 -2.65041,-1.62912 -4.31171,-2.65255 -0.95913,-0.59086 -2.16299,-1.53526 -3.43176,-1.95652 -5.23056,-6.58855 -21.72884,5.83235 -30.23302,4.23549 -2.15958,-0.53581 -6.80421,7.008 -15.03301,6.01549 -10.89438,-1.31403 -26.59389,-11.11763 -36.61735,-10.86598 z"
         id="path1134"
         sodipodi:nodetypes="ccscsccscc" />
    </g>
    <path
       style="fill:#f4d7d7;stroke:#000000;stroke-width:0;stroke-linecap:butt;stroke-linejoin:miter;stroke-miterlimit:4;stroke-dasharray:none;stroke-opacity:1"
       d="m 389.76237,470.78095 18.8147,80.80151 37.73861,2.0117 -9.18316,-78.09386 -45.89002,-4.40598 z"
       id="path1126"
       sodipodi:nodetypes="cccccc" />
    <path
       style="fill:#f4d7d7;stroke:#000000;stroke-width:0;stroke-linecap:butt;stroke-linejoin:miter;stroke-miterlimit:4;stroke-dasharray:none;stroke-opacity:1"
       d="m 663.68441,469.45907 -11.02905,17.17334 -9.34051,-15.97473 z"
       id="path1128"
       sodipodi:nodetypes="cccc" />
  </g>
</svg>
