<?xml version="1.0" encoding="UTF-8" standalone="no"?>
<svg
   xmlns:dc="http://purl.org/dc/elements/1.1/"
   xmlns:cc="http://creativecommons.org/ns#"
   xmlns:rdf="http://www.w3.org/1999/02/22-rdf-syntax-ns#"
   xmlns:svg="http://www.w3.org/2000/svg"
   xmlns="http://www.w3.org/2000/svg"
   xmlns:sodipodi="http://sodipodi.sourceforge.net/DTD/sodipodi-0.dtd"
   xmlns:inkscape="http://www.inkscape.org/namespaces/inkscape"
   width="210mm"
   height="297mm"
   viewBox="0 0 210 297"
   version="1.1"
   id="svg8"
   sodipodi:docname="Spinner.svg"
   inkscape:version="1.0 (b51213c273, 2020-08-10)">
  <defs
     id="defs2" />
  <sodipodi:namedview
     id="base"
     pagecolor="#ffffff"
     bordercolor="#666666"
     borderopacity="1.0"
     inkscape:pageopacity="0.0"
     inkscape:pageshadow="2"
     inkscape:zoom="0.98994949"
     inkscape:cx="310.77688"
     inkscape:cy="519.57879"
     inkscape:document-units="mm"
     inkscape:current-layer="layer1"
     inkscape:document-rotation="0"
     showgrid="false"
     inkscape:snap-global="false"
     inkscape:window-width="1354"
     inkscape:window-height="738"
     inkscape:window-x="0"
     inkscape:window-y="0"
     inkscape:window-maximized="0" />
  <metadata
     id="metadata5">
    <rdf:RDF>
      <cc:Work
         rdf:about="">
        <dc:format>image/svg+xml</dc:format>
        <dc:type
           rdf:resource="http://purl.org/dc/dcmitype/StillImage" />
      </cc:Work>
    </rdf:RDF>
  </metadata>
  <g
     inkscape:label="Capa 1"
     inkscape:groupmode="layer"
     id="layer1">
    <ellipse
       style="fill:none;fill-rule:evenodd;stroke:#7e7e7e;stroke-width:0;stroke-linecap:round;stroke-linejoin:round;stroke-miterlimit:4;stroke-dasharray:none"
       id="path10"
       cx="106.17094"
       cy="135.65341"
       rx="47.643505"
       ry="47.974705"
       inkscape:export-xdpi="96"
       inkscape:export-ydpi="96" />
    <path
       style="fill:#241c22;stroke:#000000;stroke-width:0;stroke-linecap:butt;stroke-linejoin:miter;stroke-miterlimit:4;stroke-dasharray:none;stroke-opacity:1"
       d="m 106.52917,87.312152 0.49833,10.795038 c 0,0 3.81406,0.474434 7.52017,1.436964 6.82055,1.771396 11.48047,3.437596 15.99737,7.138166 4.94934,4.05485 9.28837,10.89194 11.11735,15.6475 3.91261,10.17322 3.70939,19.28144 0.6728,27.65649 -1.44579,3.98757 -6.72605,9.99909 -9.86227,12.93203 -4.22806,3.954 -8.90829,6.58734 -10.47001,7.35651 -4.04543,1.99244 -9.75119,3.18536 -16.22542,2.74177 -5.796669,-0.39716 -11.776546,-1.0982 -16.835906,-3.84388 -5.50796,-2.98914 -9.980815,-7.45892 -13.497409,-13.08713 -3.300169,-5.28183 -5.42657,-12.48971 -5.42657,-12.48971 -0.909465,-3.85945 -0.797041,-15.98062 -0.797041,-15.98062 0,0 -6.65763,-0.24122 -10.054857,-0.40807 -1.486837,12.93717 0.399348,24.55149 9.099188,37.93578 1.116145,1.71714 6.093984,7.17333 11.167238,10.54912 5.533382,3.68196 14.375657,6.03683 16.206566,6.60289 1.529523,0.47288 10.928561,1.77638 18.964881,0.5421 5.90902,-0.90756 11.19513,-3.30523 12.62428,-4.17909 2.26046,-1.38216 8.458,-4.80618 13.50028,-10.05495 5.72268,-5.95704 8.93657,-12.08294 9.45474,-13.40331 1.94648,-4.9599 2.53559,-6.47872 3.12991,-9.88274 0.70241,-4.02306 0.69914,-8.19925 0.47763,-12.24243 -0.20411,-3.72566 -1.92074,-11.02772 -1.92074,-11.02772 0,0 -2.16492,-6.60391 -3.79189,-9.65477 -1.17225,-2.19818 -4.25438,-6.14456 -4.25438,-6.14456 0.2241,-0.41746 -7.72196,-11.724745 -21.87668,-16.121874 -4.18464,-1.299948 -15.38847,-2.525542 -15.38847,-2.525542 z"
       id="path12"
       sodipodi:nodetypes="ccsasssssascccssssssssscacscc"
       inkscape:export-xdpi="96"
       inkscape:export-ydpi="96" />
  </g>
</svg>
